<?xml version="1.0" encoding="utf-8"?>
<!-- Generator: Adobe Illustrator 16.0.0, SVG Export Plug-In . SVG Version: 6.00 Build 0)  -->
<!DOCTYPE svg PUBLIC "-//W3C//DTD SVG 1.1//EN" "http://www.w3.org/Graphics/SVG/1.1/DTD/svg11.dtd">
<svg version="1.1" id="Layer_1" xmlns="http://www.w3.org/2000/svg" xmlns:xlink="http://www.w3.org/1999/xlink" x="0px" y="0px"
	 width="360px" height="36px" viewBox="0 0 360 36" enable-background="new 0 0 360 36" xml:space="preserve">
<g>
	<path fill="#26303D" d="M123.405,2.918h-6.8l-0.136,0.37l-11.586,31.889h4.27c1.136,0,2.003-0.14,2.705-0.635
		c0.699-0.499,1.104-1.259,1.466-2.28l1.796-5.063h9.725l1.797,5.062c0.365,1.025,0.782,1.79,1.494,2.284
		c0.709,0.493,1.584,0.633,2.72,0.633h4.226L123.405,2.918z M119.982,11.68c0.22,0.863,0.484,1.837,0.735,2.594l2.42,7.06h-6.313
		l2.421-7.058C119.498,13.517,119.762,12.544,119.982,11.68z"/>
	<path fill="#26303D" d="M72.851,28.497l-0.508,0.243l0.502-0.254l-3.943-7.936c-0.529-1.042-1.11-1.653-1.566-2.002
		c0.422-0.387,0.977-1.016,1.512-1.99l7.475-13.64h-7.605l-6.431,11.961c-0.203,0.339-0.395,0.474-0.697,0.582
		c-0.306,0.104-0.747,0.131-1.304,0.129h-2.758V6.463c0.001-1.1-0.232-2.017-0.863-2.659c-0.637-0.64-1.559-0.887-2.684-0.887
		h-3.419v6.395v5.005v20.861h6.966V21.585h2.406c0.607,0,1.114,0.02,1.461,0.125c0.352,0.114,0.551,0.249,0.756,0.625l5.083,10.206
		c0.524,1.062,1.116,1.775,1.933,2.176c0.813,0.396,1.732,0.46,2.916,0.462h4.218l-0.433-0.826
		C75.862,34.346,73.276,29.39,72.851,28.497z"/>
	<path fill="#26303D" d="M102.374,2.919h-2.76c-1.104-0.001-2.023,0.246-2.663,0.883c-0.636,0.638-0.888,1.558-0.884,2.662v9.651
		H85.733V6.464c0-1.101-0.231-2.018-0.863-2.66c-0.64-0.64-1.559-0.887-2.686-0.886h-3.326v6.396v5.946v19.917h6.875V22.114h10.334
		v13.064h6.873V15.636V9.315V2.919H102.374z"/>
	<path fill="#26303D" d="M161.54,2.918h-2.761c-1.127,0-2.05,0.247-2.683,0.887c-0.633,0.642-0.867,1.559-0.867,2.66v14.25
		c0,0.479,0.022,1.005,0.054,1.522c-0.427-0.826-0.911-1.703-1.389-2.405L143.646,2.918h-6.621v22.696v3.168v6.396h3.328
		c0.002,0,0.008,0,0.01,0c1.115,0,2.033-0.234,2.668-0.867c0.638-0.641,0.867-1.559,0.867-2.683V17.427
		c0-0.471-0.02-0.989-0.049-1.5c0.423,0.828,0.912,1.703,1.394,2.39l10.286,16.862h6.576V14.317V9.315V2.918H161.54z"/>
	<path fill="#26303D" d="M176.546,3.104h3.416l12.155,32.029h-0.946c-2.278,0-2.897-0.455-3.72-2.643l-2.842-7.563h-12.71
		l-2.889,7.563c-0.82,2.188-1.394,2.643-3.675,2.643h-0.925L176.546,3.104z M183.743,22.148l-4.236-11.437
		c-0.548-1.504-1.229-4.144-1.229-4.144h-0.091c0,0-0.684,2.64-1.23,4.144l-4.193,11.437H183.743z"/>
	<path fill="#26303D" d="M231.249,3.104h3.417l12.153,32.029h-0.947c-2.276,0-2.896-0.455-3.715-2.643l-2.845-7.563h-12.711
		l-2.888,7.563c-0.82,2.188-1.394,2.643-3.672,2.643h-0.931L231.249,3.104z M238.448,22.148l-4.239-11.437
		c-0.546-1.504-1.229-4.144-1.229-4.144h-0.091c0,0-0.684,2.64-1.232,4.144l-4.19,11.437H238.448z"/>
	<path fill="#26303D" d="M301.534,3.104h3.235l8.473,18.634c0.775,1.641,1.597,3.779,1.597,3.779h0.09c0,0,0.821-2.139,1.55-3.779
		l8.474-18.634h3.235l2.788,32.029h-0.92c-1.96,0-2.644-0.821-2.779-2.78l-1.503-19.452c-0.139-1.734-0.139-4.466-0.139-4.466
		h-0.092c0,0-0.865,2.825-1.642,4.466l-7.604,16.261h-2.868l-7.565-16.261c-0.729-1.597-1.686-4.557-1.686-4.557h-0.091
		c0,0,0,2.823-0.136,4.557l-1.505,19.452c-0.137,1.959-0.821,2.78-2.78,2.78h-0.746L301.534,3.104z"/>
	<path fill="#26303D" d="M342.055,21.192L330.903,3.104h0.944c2.188,0,3.006,0.318,4.374,2.551l5.423,9.066
		c1.003,1.685,1.957,3.601,1.957,3.601h0.092c0,0,0.957-1.917,1.958-3.601l5.422-9.066c1.367-2.233,2.187-2.551,4.375-2.551h0.947
		l-11.152,18.088v13.94h-3.188V21.192z"/>
	<path fill="#26303D" d="M215.986,10.881c-1.232-2.628-4.724-5.638-9.845-5.638c-7.106,0-12.57,5.56-12.57,13.304
		c0,7.654,5.421,13.806,12.711,13.806c3.469,0,6.251-1.152,7.983-2.43c2.105-1.55,4.316,0.244,4.316,0.244s-4.42,5.189-12.347,5.189
		c-9.386,0-15.992-7.47-15.992-16.81c0-9.248,6.789-16.31,15.81-16.31c4.556,0,10.175,2.022,12.301,6.853
		c0.995,2.191,1.124,3.232,1.124,3.232S216.815,12.642,215.986,10.881z"/>
	<path fill="#26303D" d="M258.737,3.104h-9.888v2.824v2.711v23.714c0,1.959,0.82,2.78,2.78,2.78h7.107
		c9.657,0,16.081-5.835,16.081-16.04C274.818,8.982,268.395,3.104,258.737,3.104z M258.419,32.306h-5.377
		c-0.637,0-1.001-0.316-1.001-1.002V5.928h6.378c7.836,0,13.074,4.649,13.074,13.165C271.493,27.66,266.301,32.306,258.419,32.306z"
		/>
	<path fill="#26303D" d="M292.922,32.306h-3.296h-7.954c-0.64,0-1.004-0.316-1.004-1.002V20.416h12.027v-2.823h-12.027V5.928h8.158
		h2.775h4.011V5.885c0-1.961-0.822-2.781-2.782-2.781h-15.351v2.824v3.673v22.752c0,1.959,0.82,2.78,2.777,2.78h13.852
		c1.958,0,2.778-0.821,2.778-2.78v-0.047H292.922z"/>
</g>
<path fill="#9DB63B" d="M11.104,33.159c0,0-5.39-12.897,4.271-22.516C24.153,1.912,37.399,0.563,39.698,0.5
	c0,0,3.557,11.674-5.321,24.91c-8.873,13.237-21.179,9.646-21.179,9.646s12.157-15.497,10.688-15.401
	C22.865,19.715,16.485,26.735,11.104,33.159z"/>
</svg>
