<?xml version="1.0" encoding="utf-8"?>
<!-- Generator: Adobe Illustrator 15.1.0, SVG Export Plug-In . SVG Version: 6.00 Build 0)  -->
<!DOCTYPE svg PUBLIC "-//W3C//DTD SVG 1.1//EN" "http://www.w3.org/Graphics/SVG/1.1/DTD/svg11.dtd">
<svg version="1.1" id="Layer_1" xmlns="http://www.w3.org/2000/svg" xmlns:xlink="http://www.w3.org/1999/xlink" x="0px" y="0px"
	 width="405px" height="94px" viewBox="0 0 405 94" enable-background="new 0 0 405 94" xml:space="preserve">
<path fill="#9B9188" d="M42.952,69.229c1.34,9.227,5.351,10.764,5.351,12.688c0,3.969,0.473,7.002-0.947,12.456h15.563
	c-2.004-4.166-0.738-14.169-0.738-14.169c5.352-3.678,6.378-10.238,8.668-13.367c2.294-3.127,3.822-3.127,5.925-5.146
	c2.1-2.025-2.523-2.578-5.007-1.658c-2.481,0.92-4.548,5.518-5.886,5.149s-2.293-4.599-1.72-6.806
	c0.572-2.207,4.009-13.033,5.156-16.343c1.145-3.311-2.675-2.943-3.057-1.656c-0.383,1.287-4.448,8.96-5.594,12.085
	c-1.146,3.127-1.936,2.879-2.131,0.357c-0.143-1.845-0.153-13.021,0.035-16.515c0.191-3.497-3.388-2.945-3.771-0.922
	c-0.382,2.024-1.153,15.268-1.533,17.292c-0.384,2.023-0.946,2.76-1.519,0.92c-0.574-1.84-3.369-12.51-3.753-14.35
	c-0.383-1.838-3.056-1.47-3.056,0.922c0,2.39,1.334,13.445,1.716,15.283c0.383,1.84-0.359,1.92-1.505,0.818
	c-1.3-1.249-4.281-6.674-5.442-8.534c-1.146-1.839-4.395-1.472-2.675,1.841C38.751,52.884,41.425,58.676,42.952,69.229z"/>
<g>
	<path fill="#9DB63B" d="M50.056,30.58c0,0-5.251-2.956-4.072-8.864c1.072-5.369,5.719-9.579,6.548-10.167
		c0,0,4.438,4.276,4.438,11.325c0,7.047-5.596,7.901-5.596,7.901s0.857-9.607,0.244-9.662C51.167,21.07,50.017,29.242,50.056,30.58z
		"/>
	<path fill="#9DB63B" d="M40.215,72.462c0,0,0.178,4.189-3.857,5.417c-3.67,1.117-7.979-0.337-8.647-0.652
		c0,0,0.932-4.128,5.218-6.451c4.285-2.33,6.908,0.814,6.908,0.814s-6.163,2.646-5.965,3.041
		C34.018,74.918,39.414,72.926,40.215,72.462z"/>
	<path fill="#9DB63B" d="M75.836,40.142c0,0-1.02-4.012,2.562-6.521c3.25-2.282,7.633-2.272,8.332-2.186
		c0,0-0.048,4.316-3.638,7.974c-3.594,3.658-6.722,1.458-6.722,1.458s5.312-4.581,5.046-4.9
		C81.22,35.733,76.499,39.43,75.836,40.142z"/>
	<path fill="#9DB63B" d="M70.635,52.852c0,0,2.858,3.855,7.939,1.952c4.612-1.728,8.026-6.212,8.492-6.989
		c0,0-3.963-2.977-10.1-1.865c-6.135,1.109-6.572,5.846-6.572,5.846s8.316-2.218,8.397-1.722
		C78.854,50.439,71.805,52.674,70.635,52.852z"/>
	<path fill="#9DB63B" d="M34.894,62.379c0,0,2.008-5.112-2.917-8.893c-4.478-3.434-10.9-4.023-11.937-4.008
		c0,0-0.485,5.656,4.312,10.938c4.796,5.282,9.666,2.833,9.666,2.833s-7.199-6.729-6.768-7.106
		C27.568,55.864,34.012,61.354,34.894,62.379z"/>
	<path fill="#9DB63B" d="M40.146,39.839c0,0-6.015-1.371-6.987-7.303c-0.888-5.389,2.022-10.493,2.591-11.333
		c0,0,5.103,1.711,7.579,8.292c2.478,6.581-1.967,10.078-1.967,10.078s-2.443-8.336-2.791-7.786
		C38.334,32.17,39.219,36.26,40.146,39.839z"/>
	<path fill="#9DB63B" d="M30.42,45.942c0,0-6.367,1.856-10.391-3.207c-3.656-4.602-3.59-10.924-3.496-12.011
		c0,0,5.694-1.058,11.465,3.828c5.771,4.89,3.425,10.502,3.425,10.502s-6.663-6.558-6.697-5.857
		C24.704,39.681,27.677,43.062,30.42,45.942z"/>
	<path fill="#9DB63B" d="M62.677,34.911c0,0-2.479-5.933,1.962-10.353c4.038-4.015,10.129-4.637,11.186-4.666
		c0,0,1.636,5.37-2.446,11.454c-4.081,6.087-9.736,4.436-9.736,4.436s5.588-7.127,4.913-7.083
		C68.085,28.728,65.151,31.957,62.677,34.911z"/>
	<path fill="#9DB63B" d="M13.425,39.542c0,0-2.399-3.402-6.202-2.045c-3.455,1.232-5.809,4.9-6.119,5.539
		c0,0,3.249,2.777,7.919,2.155c4.667-0.621,4.71-4.438,4.71-4.438s-6.35,1.55-6.38,0.795C7.336,41.226,12.533,39.633,13.425,39.542z
		"/>
	<path fill="#9DB63B" d="M75.623,13.978c0,0,2.938,2.026,5.595-0.191c2.412-2.015,3.217-5.664,3.276-6.268
		c0,0-3.434-1.268-7.006,0.615c-3.57,1.881-2.471,4.961-2.471,4.961s4.649-3.126,4.896-2.528
		C80.021,10.824,76.313,13.644,75.623,13.978z"/>
	<path fill="#9DB63B" d="M50.618,8.267c0,0,1.544-2.594-0.479-4.712c-1.836-1.921-4.957-2.395-5.476-2.413
		c0,0-0.875,2.972,0.914,5.879c1.791,2.909,4.33,1.805,4.33,1.805s-2.902-3.744-2.409-3.987C47.707,4.734,50.293,7.705,50.618,8.267
		z"/>
	<path fill="#9DB63B" d="M29.947,13.22c0,0-3.016,0.213-3.992-2.548c-0.891-2.508,0.099-5.511,0.316-5.978
		c0,0,3.054,0.555,4.842,3.461c1.789,2.91-0.343,4.682-0.343,4.682s-2.033-4.277-2.475-3.95C28.11,9.027,29.594,12.677,29.947,13.22
		z"/>
	<path fill="#9DB63B" d="M90.473,37.149c0,0,2.95,3.604,7.081,1.782c3.752-1.655,6.077-5.939,6.374-6.675
		c0,0-3.851-2.828-9.006-1.759c-5.158,1.069-4.891,5.329-4.891,5.329s6.951-2.242,7.049-1.404
		C97.122,34.783,91.456,36.979,90.473,37.149z"/>
	<path fill="#9DB63B" d="M62.775,17.565c0,0-4.08-2.627-2.547-7.262c1.388-4.21,5.64-7.314,6.382-7.737c0,0,3.28,3.633,2.621,9.238
		c-0.658,5.602-5.382,5.984-5.382,5.984s1.611-7.591,1.106-7.669C64.588,10.063,62.87,16.498,62.775,17.565z"/>
	<path fill="#9DB63B" d="M81.563,24.338c0,0-0.807-3.891,2.778-5.657c3.257-1.603,7.507-0.904,8.178-0.713
		c0,0-0.237,4.002-3.887,6.832c-3.648,2.829-6.581,0.291-6.581,0.291s5.357-3.416,5.111-3.754
		C86.984,21.089,82.24,23.78,81.563,24.338z"/>
	<path fill="#9DB63B" d="M25.035,66.969c0,0-1.541-3.248-5.237-2.641c-3.359,0.551-6.193,3.297-6.597,3.791
		c0,0,2.395,2.779,6.729,2.909c4.334,0.134,5.154-3.255,5.154-3.255s-5.955,0.345-5.955-0.033
		C19.129,67.469,24.214,66.921,25.035,66.969z"/>
	<path fill="#9DB63B" d="M12.549,31.313c0,0,0.225-3.587-3.304-4.844c-3.206-1.144-7.017-0.112-7.61,0.125
		c0,0,0.754,3.589,4.481,5.802c3.73,2.214,6.087-0.353,6.087-0.353s-5.377-2.583-5.198-2.912
		C7.139,28.892,11.852,30.873,12.549,31.313z"/>
	<path fill="#9DB63B" d="M29.719,25.311c0,0-4.484,3.585-9.104,0.119c-4.2-3.146-6.074-9.082-6.27-10.075
		c0,0,5.313-2.307,11.348,0.543c6.032,2.852,4.684,8.292,4.684,8.292s-7.911-4.669-8.187-4.131
		C21.99,20.452,28.558,24.805,29.719,25.311z"/>
	<path fill="#9DB63B" d="M17.382,55.378c0,0-1.21,4.007-5.416,3.838c-3.823-0.152-7.402-2.94-7.931-3.452
		c0,0,2.235-3.588,7.035-4.369c4.805-0.787,6.243,3.038,6.243,3.038s-6.681,0.471-6.622,0.903
		C10.732,55.656,16.476,55.554,17.382,55.378z"/>
	<path fill="#9DB63B" d="M91.897,46.894c0,0,1.646-2.923,4.905-2.059c2.964,0.785,5.276,3.59,5.602,4.084
		c0,0-2.372,2.414-6.265,2.189c-3.892-0.225-4.352-3.465-4.352-3.465s5.305,0.797,5.337,0.448
		C97.148,47.835,92.638,46.912,91.897,46.894z"/>
	<path fill="#9DB63B" d="M42.118,18.935c0,0-4.615,0.405-6.436-3.858c-1.648-3.87-0.527-8.561-0.259-9.295
		c0,0,4.673,0.788,7.737,5.258c3.057,4.47-0.122,7.445-0.122,7.445s-3.627-6.471-4.042-6.239
		C38.695,12.417,41.509,18.1,42.118,18.935z"/>
</g>
<g>
	<path fill="#26303D" d="M158.077,60.174h-7.196l-0.144,0.392l-12.267,33.759h4.521c1.202,0,2.12-0.148,2.864-0.673
		c0.739-0.528,1.168-1.334,1.552-2.415l1.899-5.359h10.296l1.901,5.358c0.387,1.085,0.828,1.896,1.582,2.419
		c0.75,0.521,1.677,0.67,2.88,0.67h4.473L158.077,60.174z M154.455,69.449c0.232,0.914,0.513,1.945,0.777,2.746l2.563,7.474h-6.684
		l2.562-7.472C153.942,71.395,154.223,70.365,154.455,69.449z"/>
	<path fill="#26303D" d="M104.56,87.251l-0.537,0.257l0.532-0.266l-4.175-8.402c-0.562-1.103-1.176-1.75-1.658-2.119
		c0.446-0.409,1.033-1.076,1.6-2.107l7.913-14.439h-8.051l-6.807,12.661c-0.216,0.36-0.418,0.501-0.739,0.616
		c-0.323,0.109-0.791,0.139-1.379,0.137h-2.921v-9.66c0.002-1.165-0.245-2.136-0.914-2.815c-0.673-0.677-1.649-0.938-2.84-0.938
		h-3.619v6.77v5.299v22.084h7.373V79.936h2.548c0.644-0.001,1.18,0.02,1.546,0.133c0.372,0.119,0.584,0.263,0.803,0.662l5.38,10.802
		c0.554,1.124,1.182,1.879,2.045,2.304c0.862,0.419,1.834,0.488,3.087,0.49h4.465l-0.457-0.875
		C107.749,93.443,105.011,88.195,104.56,87.251z"/>
	<path fill="#26303D" d="M135.814,60.175h-2.921c-1.168-0.001-2.143,0.261-2.819,0.935c-0.673,0.676-0.939,1.649-0.936,2.818v10.217
		h-10.94V63.928c0-1.165-0.244-2.136-0.913-2.815c-0.678-0.677-1.65-0.938-2.844-0.938h-3.52v6.771v6.295v21.086h7.276V80.494h10.94
		v13.832h7.275V73.637v-6.691v-6.771H135.814z"/>
	<path fill="#26303D" d="M198.448,60.174h-2.923c-1.192,0-2.17,0.262-2.839,0.938c-0.671,0.68-0.918,1.65-0.918,2.815v15.085
		c0,0.506,0.023,1.063,0.056,1.611c-0.45-0.874-0.964-1.803-1.471-2.544l-10.849-17.906h-7.01V84.2v3.354v6.771h3.523
		c0.003,0,0.009,0,0.011,0c1.181,0,2.152-0.247,2.825-0.919c0.674-0.677,0.918-1.649,0.918-2.838V75.533
		c0-0.499-0.021-1.047-0.053-1.589c0.448,0.876,0.966,1.802,1.475,2.53l10.891,17.852h6.96V72.242v-5.297v-6.771H198.448z"/>
	<path fill="#26303D" d="M214.333,60.371h3.617l12.866,33.904h-1.002c-2.411,0-3.067-0.481-3.938-2.797l-3.007-8.006h-13.456
		l-3.059,8.006c-0.866,2.315-1.475,2.797-3.889,2.797h-0.98L214.333,60.371z M221.953,80.53l-4.484-12.105
		c-0.58-1.593-1.303-4.388-1.303-4.388h-0.097c0,0-0.724,2.795-1.303,4.388l-4.438,12.105H221.953z"/>
	<path fill="#26303D" d="M272.243,60.371h3.616l12.865,33.904h-1.002c-2.41,0-3.067-0.481-3.935-2.797l-3.01-8.006h-13.455
		l-3.059,8.006c-0.869,2.315-1.475,2.797-3.886,2.797h-0.985L272.243,60.371z M279.861,80.53l-4.485-12.105
		c-0.577-1.593-1.302-4.388-1.302-4.388h-0.096c0,0-0.725,2.795-1.305,4.388l-4.438,12.105H279.861z"/>
	<path fill="#26303D" d="M346.646,60.371h3.425l8.97,19.727c0.82,1.734,1.689,4.002,1.689,4.002h0.095c0,0,0.869-2.268,1.64-4.002
		l8.972-19.727h3.425l2.951,33.904h-0.973c-2.075,0-2.8-0.868-2.942-2.941l-1.592-20.592c-0.146-1.836-0.146-4.729-0.146-4.729
		h-0.097c0,0-0.917,2.99-1.738,4.729l-8.05,17.214h-3.036l-8.009-17.214c-0.772-1.69-1.784-4.824-1.784-4.824h-0.096
		c0,0,0,2.988-0.145,4.824l-1.594,20.592c-0.144,2.073-0.868,2.941-2.942,2.941h-0.791L346.646,60.371z"/>
	<path fill="#26303D" d="M389.542,79.518l-11.806-19.146h1.001c2.314,0,3.181,0.336,4.63,2.701l5.74,9.596
		c1.061,1.784,2.071,3.813,2.071,3.813h0.099c0,0,1.012-2.028,2.071-3.813l5.741-9.596c1.446-2.365,2.313-2.701,4.631-2.701h1.001
		l-11.805,19.146v14.758h-3.375V79.518z"/>
	<path fill="#26303D" d="M256.086,68.604c-1.306-2.783-5-5.968-10.423-5.968c-7.522,0-13.308,5.886-13.308,14.083
		c0,8.103,5.738,14.615,13.457,14.615c3.674,0,6.618-1.221,8.45-2.573c2.229-1.64,4.569,0.258,4.569,0.258
		s-4.679,5.495-13.069,5.495c-9.937,0-16.93-7.907-16.93-17.795c0-9.79,7.187-17.266,16.736-17.266
		c4.821,0,10.771,2.141,13.021,7.254c1.054,2.32,1.189,3.422,1.189,3.422S256.963,70.468,256.086,68.604z"/>
	<path fill="#26303D" d="M301.341,60.371h-10.467v2.989v2.869v25.104c0,2.073,0.868,2.941,2.942,2.941h7.524
		c10.224,0,17.024-6.175,17.024-16.979C318.365,66.594,311.564,60.371,301.341,60.371z M301.004,91.285h-5.691
		c-0.674,0-1.059-0.337-1.059-1.063V63.36h6.75c8.295,0,13.842,4.921,13.842,13.937C314.846,86.367,309.348,91.285,301.004,91.285z"
		/>
	<path fill="#26303D" d="M337.527,91.285h-3.488h-8.419c-0.679,0-1.063-0.337-1.063-1.063V78.697h12.731v-2.988h-12.731V63.36h8.636
		h2.938h4.245v-0.045c0-2.077-0.869-2.944-2.944-2.944h-16.251v2.989v3.888v24.086c0,2.073,0.868,2.941,2.94,2.941h14.665
		c2.069,0,2.938-0.868,2.938-2.941v-0.049H337.527z"/>
</g>
</svg>
